<svg version="1.1" id="Layer_1" xmlns="http://www.w3.org/2000/svg" xmlns:xlink="http://www.w3.org/1999/xlink" x="0px" y="0px"
	 width="100%" viewBox="0 0 200 200" enable-background="new 0 0 200 200" xml:space="preserve">
<path fill="#020201" opacity="1.000000" stroke="none" 
	d="
M1.000000,74.000000 
	C1.000000,49.333340 1.000000,25.166677 1.000000,1.000013 
	C67.666649,1.000009 134.333298,1.000009 200.999954,1.000004 
	C200.999969,67.666634 200.999969,134.333267 200.999985,200.999908 
	C134.333389,200.999939 67.666771,200.999939 1.000080,200.999969 
	C1.000000,158.833328 1.000000,116.666664 1.000000,74.000000 
M182.570099,154.687851 
	C184.330521,151.443802 186.090942,148.199753 188.274323,144.335373 
	C189.898697,139.573990 191.523071,134.812622 193.851669,129.764542 
	C194.946899,124.847031 196.042145,119.929527 197.478073,114.361626 
	C197.645096,112.905579 197.812119,111.449532 198.371658,109.481674 
	C198.495102,108.648956 198.618561,107.816238 198.920197,106.068184 
	C198.298523,99.378571 197.676849,92.688957 197.263580,85.216164 
	C190.567596,47.495861 164.961014,16.116804 122.369667,5.719115 
	C120.673180,5.495967 118.977303,5.268143 117.280098,5.050565 
	C112.520912,4.440446 107.761177,3.834553 102.098541,3.037186 
	C96.403069,3.480276 90.707588,3.923366 84.265900,4.212479 
	C79.157860,5.800285 74.049820,7.388092 68.176964,9.024017 
	C63.886238,10.916489 59.595512,12.808960 54.680645,14.933386 
	C51.457920,16.969238 48.235195,19.005091 44.337936,21.160732 
	C40.212139,24.734917 36.086342,28.309101 31.346952,32.169468 
	C27.522966,37.024658 23.698980,41.879848 19.298782,47.125462 
	C16.745447,52.042774 14.192111,56.960087 11.125239,62.352119 
	C9.391826,67.901489 7.658412,73.450867 5.642588,79.723663 
	C4.871981,86.811920 4.101373,93.900169 3.148739,101.890472 
	C4.078089,108.926964 5.007439,115.963463 5.797188,123.792923 
	C7.347590,128.824707 8.340899,134.115326 10.538873,138.846252 
	C24.719774,169.369217 47.723202,189.304016 81.772362,196.961014 
	C84.521469,197.285019 87.270584,197.609039 90.546013,198.295425 
	C91.369476,198.447479 92.192940,198.599548 93.945908,198.838974 
	C99.303505,198.573685 104.661110,198.308395 110.856476,198.084183 
	C115.608223,197.165161 120.359970,196.246140 125.914215,195.275574 
	C131.304657,193.262650 136.695084,191.249710 142.801086,189.122696 
	C148.274307,185.777847 153.747543,182.432999 159.801636,178.761154 
	C164.288376,174.539764 168.775116,170.318375 173.856583,165.767166 
	C176.549591,162.172180 179.242599,158.577194 182.570099,154.687851 
z"/>
<path fill="#F8E197" opacity="1.000000" stroke="none" 
	d="
M123.000465,5.945129 
	C164.961014,16.116804 190.567596,47.495861 196.799973,85.557991 
	C194.136841,84.960663 191.937317,84.021515 189.513611,82.784027 
	C187.042313,75.818298 185.423325,68.854042 182.437271,62.535885 
	C170.689880,37.679821 151.010056,21.870974 124.955421,13.247489 
	C124.283386,10.542606 123.641922,8.243868 123.000465,5.945129 
z"/>
<path fill="#E38D4D" opacity="1.000000" stroke="none" 
	d="
M81.011765,196.597229 
	C47.723202,189.304016 24.719774,169.369217 10.538873,138.846252 
	C8.340899,134.115326 7.347590,128.824707 6.239218,123.457245 
	C9.047625,124.095383 11.414001,125.069191 13.890173,126.348457 
	C17.104841,133.492493 19.692627,140.627655 23.412653,147.113419 
	C34.083511,165.717712 50.368896,177.923859 69.869804,186.124130 
	C72.799500,187.356094 75.952148,188.057816 79.012985,189.373108 
	C79.686790,192.026657 80.349281,194.311935 81.011765,196.597229 
z"/>
<path fill="#FBDC91" opacity="1.000000" stroke="none" 
	d="
M189.737793,83.082367 
	C191.937317,84.021515 194.136841,84.960663 196.695770,85.949585 
	C197.676849,92.688957 198.298523,99.378571 198.543472,106.603119 
	C198.104218,108.089859 198.041687,109.041672 197.979156,109.993484 
	C197.812119,111.449532 197.645096,112.905579 196.945267,114.642685 
	C194.496155,113.915627 192.579849,112.907509 190.757309,111.444870 
	C190.479980,101.687683 190.108887,92.385025 189.737793,83.082367 
z"/>
<path fill="#E99552" opacity="1.000000" stroke="none" 
	d="
M81.392059,196.779114 
	C80.349281,194.311935 79.686790,192.026657 79.428940,189.368835 
	C87.557518,189.717987 95.281464,190.439667 103.065887,191.492706 
	C105.423820,193.897064 107.721268,195.970093 110.018707,198.043106 
	C104.661110,198.308395 99.303505,198.573685 93.402695,198.510040 
	C91.912888,198.098419 90.966293,198.015732 90.019691,197.933044 
	C87.270584,197.609039 84.521469,197.285019 81.392059,196.779114 
z"/>
<path fill="#E59250" opacity="1.000000" stroke="none" 
	d="
M13.780378,126.043007 
	C11.414001,125.069191 9.047625,124.095383 6.309018,123.060760 
	C5.007439,115.963463 4.078089,108.926964 3.576098,101.453461 
	C5.949539,102.008331 7.895623,103.000206 9.914582,104.411430 
	C11.251765,111.901520 12.516072,118.972260 13.780378,126.043007 
z"/>
<path fill="#EB9A56" opacity="1.000000" stroke="none" 
	d="
M9.841705,103.992088 
	C7.895623,103.000206 5.949539,102.008331 3.667111,101.002441 
	C4.101373,93.900169 4.871981,86.811920 6.151687,79.373108 
	C8.681193,79.679123 10.701601,80.335701 12.750900,81.391830 
	C11.800428,89.191620 10.821067,96.591858 9.841705,103.992088 
z"/>
<path fill="#FBD98E" opacity="1.000000" stroke="none" 
	d="
M85.012115,4.366456 
	C90.707588,3.923366 96.403069,3.480276 102.564682,3.480813 
	C104.021332,6.230464 105.011833,8.536489 105.539856,10.916565 
	C99.054169,11.224504 93.030975,11.458392 86.938278,11.355865 
	C86.249886,8.801785 85.631004,6.584121 85.012115,4.366456 
z"/>
<path fill="#F9DD93" opacity="1.000000" stroke="none" 
	d="
M106.002335,10.842513 
	C105.011833,8.536489 104.021332,6.230464 103.016251,3.575717 
	C107.761177,3.834553 112.520912,4.440446 117.280098,5.050565 
	C118.977303,5.268143 120.673180,5.495967 122.685066,5.832122 
	C123.641922,8.243868 124.283386,10.542606 124.514297,13.227338 
	C118.069946,12.689724 112.036140,11.766118 106.002335,10.842513 
z"/>
<path fill="#F9B66E" opacity="1.000000" stroke="none" 
	d="
M173.261856,166.096970 
	C168.775116,170.318375 164.288376,174.539764 159.107712,178.885254 
	C156.291199,177.859634 154.168610,176.709915 152.304230,175.311615 
	C157.434891,170.916489 162.307327,166.769928 167.542450,162.790375 
	C169.690704,164.003906 171.476273,165.050430 173.261856,166.096970 
z"/>
<path fill="#EB9C58" opacity="1.000000" stroke="none" 
	d="
M110.437592,198.063644 
	C107.721268,195.970093 105.423820,193.897064 103.516899,191.426636 
	C110.254768,190.296249 116.602127,189.563293 123.009216,189.205612 
	C123.749870,191.496307 124.430794,193.411728 125.111725,195.327133 
	C120.359970,196.246140 115.608223,197.165161 110.437592,198.063644 
z"/>
<path fill="#F5B16A" opacity="1.000000" stroke="none" 
	d="
M19.874992,46.735043 
	C23.698980,41.879848 27.522966,37.024658 31.675594,32.403229 
	C33.657673,34.087086 35.311104,35.537186 36.831123,37.293983 
	C33.101147,41.731979 29.504581,45.863277 25.549149,49.982880 
	C23.418520,48.892471 21.646757,47.813759 19.874992,46.735043 
z"/>
<path fill="#F0A45E" opacity="1.000000" stroke="none" 
	d="
M125.512970,195.301361 
	C124.430794,193.411728 123.749870,191.496307 123.286392,188.954407 
	C128.675003,186.573013 133.846176,184.818130 139.167847,183.370514 
	C140.240723,185.530762 141.163116,187.383774 142.085526,189.236786 
	C136.695084,191.249710 131.304657,193.262650 125.512970,195.301361 
z"/>
<path fill="#F8BB73" opacity="1.000000" stroke="none" 
	d="
M36.964539,36.987286 
	C35.311104,35.537186 33.657673,34.087086 31.982391,32.260136 
	C36.086342,28.309101 40.212139,24.734917 44.684586,21.462585 
	C46.057034,23.611444 47.082829,25.458450 47.963371,27.601435 
	C44.200253,30.927372 40.582397,33.957329 36.964539,36.987286 
z"/>
<path fill="#F2AB64" opacity="1.000000" stroke="none" 
	d="
M142.443298,189.179749 
	C141.163116,187.383774 140.240723,185.530762 139.371887,183.080353 
	C143.632324,180.175354 147.839172,177.867767 152.046021,175.560181 
	C154.168610,176.709915 156.291199,177.859634 158.817276,179.048767 
	C153.747543,182.432999 148.274307,185.777847 142.443298,189.179749 
z"/>
<path fill="#ECA25C" opacity="1.000000" stroke="none" 
	d="
M12.722010,80.992271 
	C10.701601,80.335701 8.681193,79.679123 6.292892,79.011391 
	C7.658412,73.450867 9.391826,67.901489 11.759060,62.184937 
	C14.275634,62.682636 16.158386,63.347519 17.997295,64.382523 
	C16.209641,70.165855 14.465824,75.579063 12.722010,80.992271 
z"/>
<path fill="#F8C981" opacity="1.000000" stroke="none" 
	d="
M193.147446,130.051239 
	C191.523071,134.812622 189.898697,139.573990 187.687897,144.652832 
	C185.343933,143.861786 183.586365,142.753281 181.836334,141.279419 
	C183.660919,136.610321 185.477966,132.306610 187.630692,128.079559 
	C189.693390,128.787888 191.420410,129.419556 193.147446,130.051239 
z"/>
<path fill="#F2CC85" opacity="1.000000" stroke="none" 
	d="
M193.499557,129.907898 
	C191.420410,129.419556 189.693390,128.787888 187.675934,127.693253 
	C188.478195,122.120003 189.570877,117.009697 190.663544,111.899391 
	C192.579849,112.907509 194.496155,113.915627 196.774933,114.967880 
	C196.042145,119.929527 194.946899,124.847031 193.499557,129.907898 
z"/>
<path fill="#F2AA63" opacity="1.000000" stroke="none" 
	d="
M18.041138,64.012405 
	C16.158386,63.347519 14.275634,62.682636 12.015829,61.947578 
	C14.192111,56.960087 16.745447,52.042774 19.586887,46.930252 
	C21.646757,47.813759 23.418520,48.892471 25.503901,50.327911 
	C23.225391,55.127224 20.633265,59.569813 18.041138,64.012405 
z"/>
<path fill="#F9D288" opacity="1.000000" stroke="none" 
	d="
M84.639008,4.289467 
	C85.631004,6.584121 86.249886,8.801785 86.524467,11.461390 
	C82.246338,12.661807 78.312508,13.420283 74.061600,14.019508 
	C72.143593,12.232139 70.542686,10.604020 68.941780,8.975900 
	C74.049820,7.388092 79.157860,5.800285 84.639008,4.289467 
z"/>
<path fill="#FBCD83" opacity="1.000000" stroke="none" 
	d="
M68.559372,8.999959 
	C70.542686,10.604020 72.143593,12.232139 73.821838,14.317339 
	C69.259842,16.482964 64.620529,18.191507 59.802425,19.607502 
	C58.184021,17.777113 56.744400,16.239271 55.304783,14.701431 
	C59.595512,12.808960 63.886238,10.916489 68.559372,8.999959 
z"/>
<path fill="#F7C37A" opacity="1.000000" stroke="none" 
	d="
M54.992714,14.817408 
	C56.744400,16.239271 58.184021,17.777113 59.558853,19.847734 
	C55.698921,22.688829 51.903774,24.997141 48.108627,27.305454 
	C47.082829,25.458450 46.057034,23.611444 45.021854,21.402691 
	C48.235195,19.005091 51.457920,16.969238 54.992714,14.817408 
z"/>
<path fill="#FABE76" opacity="1.000000" stroke="none" 
	d="
M173.559219,165.932068 
	C171.476273,165.050430 169.690704,164.003906 167.664307,162.453339 
	C170.187195,158.599213 172.950897,155.249100 176.035706,152.056305 
	C178.216415,153.136475 180.076019,154.059341 181.935608,154.982208 
	C179.242599,158.577194 176.549591,162.172180 173.559219,165.932068 
z"/>
<path fill="#F7C37A" opacity="1.000000" stroke="none" 
	d="
M182.252869,154.835022 
	C180.076019,154.059341 178.216415,153.136475 176.123108,151.707214 
	C177.869202,148.015472 179.848999,144.830124 181.828796,141.644791 
	C183.586365,142.753281 185.343933,143.861786 187.476425,144.962997 
	C186.090942,148.199753 184.330521,151.443802 182.252869,154.835022 
z"/>
<path fill="#DE8A4B" opacity="1.000000" stroke="none" 
	d="
M90.282852,198.114227 
	C90.966293,198.015732 91.912888,198.098419 92.937943,198.466354 
	C92.192940,198.599548 91.369476,198.447479 90.282852,198.114227 
z"/>
<path fill="#F2CC85" opacity="1.000000" stroke="none" 
	d="
M198.175415,109.737579 
	C198.041687,109.041672 198.104218,108.089859 198.454376,107.060783 
	C198.618561,107.816238 198.495102,108.648956 198.175415,109.737579 
z"/>
<path fill="#020201" opacity="1.000000" stroke="none" 
	d="
M181.836334,141.279419 
	C179.848999,144.830124 177.869202,148.015472 175.801987,151.549911 
	C172.950897,155.249100 170.187195,158.599213 167.301636,162.286346 
	C162.307327,166.769928 157.434891,170.916489 152.304230,175.311615 
	C147.839172,177.867767 143.632324,180.175354 139.221405,182.773102 
	C133.846176,184.818130 128.675003,186.573013 123.226654,188.579102 
	C116.602127,189.563293 110.254768,190.296249 103.456406,191.095276 
	C95.281464,190.439667 87.557518,189.717987 79.417618,189.000580 
	C75.952148,188.057816 72.799500,187.356094 69.869804,186.124130 
	C50.368896,177.923859 34.083511,165.717712 23.412653,147.113419 
	C19.692627,140.627655 17.104841,133.492493 13.890173,126.348457 
	C12.516072,118.972260 11.251765,111.901520 9.914581,104.411430 
	C10.821067,96.591858 11.800428,89.191620 12.750899,81.391830 
	C14.465824,75.579063 16.209641,70.165855 17.997295,64.382523 
	C20.633265,59.569813 23.225391,55.127224 25.862766,50.339603 
	C29.504581,45.863277 33.101147,41.731979 36.831123,37.293983 
	C40.582397,33.957329 44.200253,30.927372 47.963371,27.601433 
	C51.903774,24.997141 55.698921,22.688829 59.737640,20.140284 
	C64.620529,18.191507 69.259842,16.482964 74.138924,14.476589 
	C78.312508,13.420283 82.246338,12.661807 86.593964,11.797806 
	C93.030975,11.458392 99.054169,11.224504 105.539856,10.916563 
	C112.036140,11.766118 118.069946,12.689724 124.544876,13.633482 
	C151.010056,21.870974 170.689880,37.679821 182.437271,62.535885 
	C185.423325,68.854042 187.042313,75.818298 189.513611,82.784027 
	C190.108887,92.385025 190.479980,101.687683 190.757309,111.444870 
	C189.570877,117.009697 188.478195,122.120003 187.340271,127.616608 
	C185.477966,132.306610 183.660919,136.610321 181.836334,141.279419 
M140.230865,142.980438 
	C138.877365,143.060287 137.523865,143.140137 136.170364,143.219986 
	C136.321365,143.770065 136.472351,144.320160 136.623352,144.870255 
	C138.086914,144.250275 139.550491,143.630280 141.206238,142.910904 
	C141.206238,142.910904 141.215363,142.643524 141.215363,142.643524 
	C141.215363,142.643524 140.988968,142.985168 140.230865,142.980438 
M86.227211,51.857639 
	C86.214920,55.309170 86.311005,58.765472 86.159187,62.210854 
	C86.013908,65.507637 87.349289,67.123978 90.709404,67.041664 
	C94.812782,66.941139 98.917953,66.913261 103.923477,66.974113 
	C105.913750,66.979790 107.905312,66.941788 109.894020,67.000458 
	C113.743927,67.114037 115.500237,65.594467 115.325600,61.443707 
	C115.046959,54.821251 115.164558,48.176174 115.306786,41.544781 
	C115.367203,38.727737 114.217941,37.647297 111.522041,37.686878 
	C107.210648,37.750179 102.894844,37.603405 98.585861,37.723427 
	C84.633141,38.112064 86.053581,34.609428 86.227211,51.857639 
M141.157455,113.747322 
	C139.214630,113.747322 137.271805,113.747322 135.197937,113.747322 
	C135.197937,111.552315 135.197937,109.965546 135.197937,108.402184 
	C144.718811,107.344872 144.718811,107.344872 144.521042,104.266098 
	C140.122070,104.266098 135.721664,104.266098 131.396805,104.266098 
	C131.396805,111.902252 131.396805,119.264465 131.396805,126.817001 
	C135.268646,126.817001 138.752716,126.719383 142.227905,126.852791 
	C144.389084,126.935745 145.385956,126.288330 144.867783,123.224792 
	C141.799683,122.849602 138.731583,122.474403 135.744202,121.211815 
	C135.066818,115.374763 140.055969,118.658813 142.720123,117.173843 
	C142.482880,116.106972 142.245621,115.040108 141.157455,113.747322 
M123.312782,126.854485 
	C124.028511,126.769463 124.744247,126.684441 125.969780,126.538857 
	C123.865677,123.164345 122.059280,120.267296 120.262032,117.384918 
	C123.686867,114.081032 125.134087,110.667404 123.434906,108.300819 
	C119.643349,103.020027 113.993546,103.837708 108.271278,104.195244 
	C108.271278,111.801521 108.271278,119.181374 108.271278,127.894058 
	C110.568993,126.555046 112.727081,126.032616 113.308815,124.778809 
	C114.098122,123.077637 113.680489,120.816467 113.804092,118.319588 
	C117.148666,121.569023 119.864616,124.207726 123.312782,126.854485 
M92.275223,104.987999 
	C89.837776,105.241104 87.172348,104.951630 85.010277,105.860100 
	C80.489105,107.759842 78.448471,114.094467 80.083954,119.535667 
	C81.407028,123.937485 87.252304,127.672195 91.700172,126.957588 
	C98.480362,125.868263 101.992210,121.898903 101.962532,115.358292 
	C101.934395,109.157799 99.207207,105.953514 92.275223,104.987999 
M122.844528,82.977364 
	C119.376930,76.053139 113.159309,80.175591 107.958412,78.759262 
	C107.958412,86.080421 107.958412,92.833450 107.958412,99.798965 
	C109.647919,99.798965 111.076462,99.798965 112.703529,99.798965 
	C112.877533,97.120628 113.041710,94.593597 113.205887,92.066559 
	C113.604424,91.918777 114.002960,91.770988 114.401497,91.623207 
	C115.685661,93.614075 116.685387,95.896469 118.338402,97.509285 
	C119.826920,98.961578 122.031609,99.679863 123.920418,100.721893 
	C124.202873,100.310104 124.485329,99.898315 124.767784,99.486526 
	C123.061028,96.700462 121.354263,93.914398 120.236031,92.089027 
	C121.335564,88.751617 122.154129,86.267044 122.844528,82.977364 
M96.774551,79.463829 
	C95.483780,79.175034 94.203857,78.818954 92.900391,78.608978 
	C86.939194,77.648697 81.545792,81.743095 81.002129,87.602921 
	C80.379677,94.311958 84.709084,99.610939 90.746353,100.059502 
	C96.048172,100.453423 99.191025,97.278999 101.527321,93.518562 
	C103.856293,89.769890 101.595963,83.549583 96.774551,79.463829 
M145.022964,84.651146 
	C142.992279,78.709068 140.433975,77.828079 129.655548,79.472527 
	C129.655548,86.169937 129.655548,92.902077 129.655548,99.829346 
	C131.135818,99.829346 132.383575,99.829346 133.854706,99.829346 
	C133.988083,97.420380 134.113327,95.158493 134.236542,92.932983 
	C142.930527,92.365707 143.475037,91.979477 145.022964,84.651146 
M65.137047,99.642693 
	C66.687721,99.239967 69.204369,99.285500 69.632912,98.362038 
	C72.497887,92.188263 74.917725,85.807915 77.731262,78.881081 
	C68.090294,79.051987 71.857231,88.855934 66.919128,91.730743 
	C63.244629,88.064354 65.864563,79.375572 56.788712,78.813072 
	C59.643044,86.126999 62.157104,92.569016 65.137047,99.642693 
M62.063911,125.741989 
	C66.890884,127.910934 71.166595,127.183212 75.628441,122.765205 
	C73.401939,122.526085 71.605919,121.758774 70.443047,122.315048 
	C66.822426,124.046989 63.938751,122.848892 62.629814,119.793785 
	C61.615101,117.425392 61.337120,113.850479 62.440693,111.681412 
	C63.964218,108.686928 67.196854,107.462891 70.970016,109.199966 
	C72.053337,109.698692 73.835793,108.678810 75.978920,108.204430 
	C69.001343,101.273438 61.799454,104.715286 58.452148,108.868622 
	C55.100899,113.026855 56.804604,121.569717 62.063911,125.741989 
M93.980682,137.985855 
	C92.593452,137.621063 91.206215,137.256287 89.654602,136.848282 
	C89.654602,139.929626 89.654602,142.253571 89.654602,144.453568 
	C91.542236,143.711273 93.080414,143.106400 94.776680,142.439362 
	C94.633385,141.411682 94.441704,140.036957 93.980682,137.985855 
M137.458755,136.925140 
	C137.873550,136.960098 138.292969,137.038513 138.699402,136.995163 
	C138.785767,136.985947 138.824799,136.532959 138.885651,136.284424 
	C138.448578,136.357803 138.011505,136.431183 137.458755,136.925140 
z"/>
<path fill="#F2B26B" opacity="1.000000" stroke="none" 
	d="
M122.946678,126.850456 
	C119.864616,124.207726 117.148666,121.569023 113.804092,118.319588 
	C113.680489,120.816467 114.098122,123.077637 113.308815,124.778809 
	C112.727081,126.032616 110.568993,126.555046 108.271278,127.894058 
	C108.271278,119.181374 108.271278,111.801521 108.271278,104.195244 
	C113.993546,103.837708 119.643349,103.020027 123.434906,108.300819 
	C125.134087,110.667404 123.686867,114.081032 120.262032,117.384918 
	C122.059280,120.267296 123.865677,123.164345 125.969780,126.538857 
	C124.744247,126.684441 124.028511,126.769463 122.946678,126.850456 
M114.386086,108.003777 
	C113.918442,110.263771 113.450790,112.523766 112.983147,114.783760 
	C113.432396,115.109131 113.881638,115.434502 114.330879,115.759872 
	C115.893723,114.526588 117.456558,113.293304 119.019409,112.060028 
	C117.758675,110.703636 116.497948,109.347244 114.386086,108.003777 
z"/>
<path fill="#F5AF67" opacity="1.000000" stroke="none" 
	d="
M92.702415,104.984062 
	C99.207207,105.953514 101.934395,109.157799 101.962532,115.358292 
	C101.992210,121.898903 98.480362,125.868263 91.700172,126.957588 
	C87.252304,127.672195 81.407028,123.937485 80.083954,119.535667 
	C78.448471,114.094467 80.489105,107.759842 85.010277,105.860100 
	C87.172348,104.951630 89.837776,105.241104 92.702415,104.984062 
M92.787987,122.188965 
	C98.115067,120.639084 97.744247,116.156410 96.599228,112.601974 
	C95.985130,110.695656 92.566200,108.779190 90.246895,108.550346 
	C86.781136,108.208389 84.776459,110.722939 84.801910,114.473900 
	C84.827644,118.267494 84.902298,121.942848 90.085266,122.916641 
	C90.736763,122.746071 91.388252,122.575508 92.787987,122.188965 
z"/>
<path fill="#F1BB74" opacity="1.000000" stroke="none" 
	d="
M122.908607,83.379913 
	C122.154129,86.267044 121.335564,88.751617 120.236031,92.089027 
	C121.354263,93.914398 123.061028,96.700462 124.767784,99.486526 
	C124.485329,99.898315 124.202873,100.310104 123.920418,100.721893 
	C122.031609,99.679863 119.826920,98.961578 118.338402,97.509285 
	C116.685387,95.896469 115.685661,93.614075 114.401497,91.623207 
	C114.002960,91.770988 113.604424,91.918777 113.205887,92.066559 
	C113.041710,94.593597 112.877533,97.120628 112.703529,99.798965 
	C111.076462,99.798965 109.647919,99.798965 107.958412,99.798965 
	C107.958412,92.833450 107.958412,86.080421 107.958412,78.759262 
	C113.159309,80.175591 119.376930,76.053139 122.908607,83.379913 
M117.961365,83.906105 
	C116.465553,83.340179 114.969742,82.774246 113.160629,82.089783 
	C113.160629,84.821747 113.160629,86.708725 113.160629,88.595703 
	C113.615112,88.879768 114.069595,89.163841 114.524078,89.447906 
	C115.770630,87.849937 117.017174,86.251976 117.961365,83.906105 
z"/>
<path fill="#F8B76F" opacity="1.000000" stroke="none" 
	d="
M97.093956,79.678452 
	C101.595963,83.549583 103.856293,89.769890 101.527321,93.518562 
	C99.191025,97.278999 96.048172,100.453423 90.746353,100.059502 
	C84.709084,99.610939 80.379677,94.311958 81.002129,87.602921 
	C81.545792,81.743095 86.939194,77.648697 92.900391,78.608978 
	C94.203857,78.818954 95.483780,79.175034 97.093956,79.678452 
M85.313637,91.833260 
	C86.950462,93.147667 88.480873,95.403091 90.243805,95.602463 
	C95.838646,96.235191 97.335663,94.203064 96.995461,87.746025 
	C96.775597,83.573051 94.905106,82.327194 89.805649,82.936172 
	C84.645264,83.552429 85.375465,87.620186 85.313637,91.833260 
z"/>
<path fill="#E9BD78" opacity="1.000000" stroke="none" 
	d="
M145.025909,85.052917 
	C143.475037,91.979477 142.930527,92.365707 134.236542,92.932983 
	C134.113327,95.158493 133.988083,97.420380 133.854706,99.829346 
	C132.383575,99.829346 131.135818,99.829346 129.655548,99.829346 
	C129.655548,92.902077 129.655548,86.169937 129.655548,79.472527 
	C140.433975,77.828079 142.992279,78.709068 145.025909,85.052917 
M134.089615,88.257751 
	C135.819397,88.163033 137.672073,88.392380 139.215714,87.806923 
	C139.796692,87.586594 140.229095,84.739731 139.745941,84.367897 
	C138.303101,83.257446 136.373444,82.779564 134.020218,81.798904 
	C134.020218,84.487465 134.020218,85.950142 134.089615,88.257751 
z"/>
<path fill="#ECA863" opacity="1.000000" stroke="none" 
	d="
M64.904106,99.326866 
	C62.157104,92.569016 59.643044,86.126999 56.788712,78.813072 
	C65.864563,79.375572 63.244629,88.064354 66.924088,91.726761 
	C71.857231,88.855934 68.090294,79.051987 77.731262,78.881081 
	C74.917725,85.807915 72.497887,92.188263 69.632912,98.362038 
	C69.204369,99.285500 66.687721,99.239967 64.904106,99.326866 
z"/>
<path fill="#FFC57A" opacity="1.000000" stroke="none" 
	d="
M142.127335,117.246269 
	C140.055969,118.658813 135.066818,115.374763 135.554810,121.935776 
	C138.524399,123.117363 141.683380,123.574989 144.842346,124.032616 
	C145.385956,126.288330 144.389084,126.935745 142.227905,126.852791 
	C138.752716,126.719383 135.268646,126.817001 131.396805,126.817001 
	C131.396805,119.264465 131.396805,111.902252 131.396805,104.266098 
	C135.721664,104.266098 140.122070,104.266098 144.521042,104.266098 
	C144.718811,107.344872 144.718811,107.344872 135.197937,108.402184 
	C135.197937,109.965546 135.197937,111.552315 135.197937,113.747322 
	C137.271805,113.747322 139.214630,113.747322 141.582306,114.269905 
	C142.047226,115.610413 142.087280,116.428345 142.127335,117.246269 
z"/>
<path fill="#ECA25C" opacity="1.000000" stroke="none" 
	d="
M61.743320,125.514404 
	C56.804604,121.569717 55.100899,113.026855 58.452148,108.868622 
	C61.799454,104.715286 69.001343,101.273438 75.978920,108.204430 
	C73.835793,108.678810 72.053337,109.698692 70.970016,109.199966 
	C67.196854,107.462891 63.964218,108.686928 62.440693,111.681412 
	C61.337120,113.850479 61.615101,117.425392 62.629814,119.793785 
	C63.938751,122.848892 66.822426,124.046989 70.443047,122.315048 
	C71.605919,121.758774 73.401939,122.526085 75.628441,122.765205 
	C71.166595,127.183212 66.890884,127.910934 61.743320,125.514404 
z"/>
<path fill="#FED085" opacity="1.000000" stroke="none" 
	d="
M86.458710,50.944534 
	C86.053581,34.609428 84.633141,38.112064 98.585861,37.723427 
	C102.894844,37.603405 107.210648,37.750179 111.522041,37.686878 
	C114.217941,37.647297 115.367203,38.727737 115.306786,41.544781 
	C115.164558,48.176174 115.046959,54.821251 115.325600,61.443707 
	C115.500237,65.594467 113.743927,67.114037 109.894020,67.000458 
	C107.905312,66.941788 105.913750,66.979790 103.457291,66.568443 
	C102.989197,65.470917 102.987289,64.779060 103.411499,64.075424 
	C105.535294,63.994549 107.232948,63.925446 109.100113,64.067505 
	C109.860062,64.147194 110.450508,64.015709 111.446983,63.832069 
	C112.233803,63.317616 112.940125,62.859676 112.946381,62.392365 
	C113.034836,55.782879 113.090355,49.170887 112.959351,42.563358 
	C112.944405,41.809719 111.754967,41.079361 110.640472,40.242661 
	C103.284889,40.147114 96.398949,40.147114 89.263611,40.147114 
	C89.647812,42.295052 89.907188,43.745155 90.154480,45.520035 
	C89.834160,46.847744 89.525925,47.850677 89.132797,49.200279 
	C88.978683,50.017666 88.909470,50.488384 88.542618,50.974915 
	C87.649559,50.975330 87.054131,50.959930 86.458710,50.944534 
z"/>
<path fill="#EAB773" opacity="1.000000" stroke="none" 
	d="
M86.342957,51.401085 
	C87.054131,50.959930 87.649559,50.975330 88.615784,51.434914 
	C88.986580,55.771305 88.986580,59.663509 88.986580,63.555710 
	C89.618652,63.806335 90.250717,64.056961 90.882790,64.307587 
	C91.546104,63.244659 92.209419,62.181732 92.930725,61.459080 
	C93.650253,62.194019 94.311790,62.588684 95.326843,63.175705 
	C98.135139,63.543407 100.589935,63.718754 103.037079,63.944588 
	C103.029442,63.995079 102.985367,64.087204 102.985367,64.087204 
	C102.987289,64.779060 102.989197,65.470917 103.006729,66.508377 
	C98.917953,66.913261 94.812782,66.941139 90.709404,67.041664 
	C87.349289,67.123978 86.013908,65.507637 86.159187,62.210854 
	C86.311005,58.765472 86.214920,55.309170 86.342957,51.401085 
z"/>
<path fill="#885D35" opacity="1.000000" stroke="none" 
	d="
M94.115356,138.324036 
	C94.441704,140.036957 94.633385,141.411682 94.776680,142.439362 
	C93.080414,143.106400 91.542236,143.711273 89.654602,144.453568 
	C89.654602,142.253571 89.654602,139.929626 89.654602,136.848282 
	C91.206215,137.256287 92.593452,137.621063 94.115356,138.324036 
z"/>
<path fill="#D9A465" opacity="1.000000" stroke="none" 
	d="
M144.855072,123.628708 
	C141.683380,123.574989 138.524399,123.117363 135.514465,122.379478 
	C138.731583,122.474403 141.799683,122.849602 144.855072,123.628708 
z"/>
<path fill="#0B0805" opacity="1.000000" stroke="none" 
	d="
M141.014053,143.010300 
	C139.550491,143.630280 138.086914,144.250275 136.623352,144.870255 
	C136.472351,144.320160 136.321365,143.770065 136.170364,143.219986 
	C137.523865,143.140137 138.877365,143.060287 140.615402,142.990021 
	C140.999939,142.999588 141.014053,143.010300 141.014053,143.010300 
z"/>
<path fill="#D9A465" opacity="1.000000" stroke="none" 
	d="
M142.423737,117.210052 
	C142.087280,116.428345 142.047226,115.610413 142.007782,114.382858 
	C142.245621,115.040108 142.482880,116.106972 142.423737,117.210052 
z"/>
<path fill="#0B0805" opacity="1.000000" stroke="none" 
	d="
M137.516602,136.714844 
	C138.011505,136.431183 138.448578,136.357803 138.885651,136.284424 
	C138.824799,136.532959 138.785767,136.985947 138.699402,136.995163 
	C138.292969,137.038513 137.873550,136.960098 137.516602,136.714844 
z"/>
<path fill="#0B0805" opacity="1.000000" stroke="none" 
	d="
M140.994446,142.992371 
	C140.988968,142.985168 141.215363,142.643524 141.215363,142.643524 
	C141.215363,142.643524 141.206238,142.910904 141.110138,142.960602 
	C141.014053,143.010300 140.999939,142.999588 140.994446,142.992371 
z"/>
<path fill="#18110B" opacity="1.000000" stroke="none" 
	d="
M114.811646,107.997314 
	C116.497948,109.347244 117.758675,110.703636 119.019409,112.060028 
	C117.456558,113.293304 115.893723,114.526588 114.330879,115.759872 
	C113.881638,115.434502 113.432396,115.109131 112.983147,114.783760 
	C113.450790,112.523766 113.918442,110.263771 114.811646,107.997314 
z"/>
<path fill="#0B0805" opacity="1.000000" stroke="none" 
	d="
M89.958168,122.444260 
	C84.902298,121.942848 84.827644,118.267494 84.801910,114.473900 
	C84.776459,110.722939 86.781136,108.208389 90.246895,108.550346 
	C92.566200,108.779190 95.985130,110.695656 96.599228,112.601974 
	C97.744247,116.156410 98.115067,120.639084 92.067558,122.251053 
	C90.884140,122.356850 90.421158,122.400558 89.958168,122.444260 
z"/>
<path fill="#E39E5C" opacity="1.000000" stroke="none" 
	d="
M90.021713,122.680450 
	C90.421158,122.400558 90.884140,122.356850 91.693436,122.359047 
	C91.388252,122.575508 90.736763,122.746071 90.021713,122.680450 
z"/>
<path fill="#18110B" opacity="1.000000" stroke="none" 
	d="
M118.112549,84.280060 
	C117.017174,86.251976 115.770630,87.849937 114.524078,89.447906 
	C114.069595,89.163841 113.615112,88.879768 113.160629,88.595703 
	C113.160629,86.708725 113.160629,84.821747 113.160629,82.089783 
	C114.969742,82.774246 116.465553,83.340179 118.112549,84.280060 
z"/>
<path fill="#070503" opacity="1.000000" stroke="none" 
	d="
M85.171944,91.447021 
	C85.375465,87.620186 84.645264,83.552429 89.805649,82.936172 
	C94.905106,82.327194 96.775597,83.573051 96.995461,87.746025 
	C97.335663,94.203064 95.838646,96.235191 90.243805,95.602463 
	C88.480873,95.403091 86.950462,93.147667 85.171944,91.447021 
z"/>
<path fill="#100D08" opacity="1.000000" stroke="none" 
	d="
M134.054916,87.835281 
	C134.020218,85.950142 134.020218,84.487465 134.020218,81.798904 
	C136.373444,82.779564 138.303101,83.257446 139.745941,84.367897 
	C140.229095,84.739731 139.796692,87.586594 139.215714,87.806923 
	C137.672073,88.392380 135.819397,88.163033 134.054916,87.835281 
z"/>
<path fill="#100D08" opacity="1.000000" stroke="none" 
	d="
M94.973328,62.983345 
	C94.311790,62.588684 93.650253,62.194019 92.948929,61.057541 
	C92.655327,58.766792 91.617493,56.528492 92.274925,55.780804 
	C96.539207,50.931061 93.467117,49.718380 89.217697,48.853611 
	C89.525925,47.850677 89.834160,46.847744 90.541763,45.520744 
	C92.358192,44.093864 93.775253,42.991051 94.127487,42.716927 
	C95.733002,43.599892 96.895607,44.239277 98.476593,44.914703 
	C100.572411,44.913136 102.249832,44.875526 104.201141,44.896469 
	C104.660309,44.931969 104.845596,44.908920 105.340195,44.978580 
	C106.075912,45.023300 106.502312,44.975307 107.102585,45.041958 
	C107.276459,45.156601 107.690811,45.199238 107.505981,45.419472 
	C107.240181,46.375443 107.159203,47.111179 107.078232,47.846916 
	C108.543083,47.957500 110.007942,48.068089 111.472801,48.178673 
	C111.873268,48.726467 112.273735,49.274261 112.674210,49.822060 
	C105.762123,47.994320 104.382660,51.076778 104.550491,56.008812 
	C101.243721,55.798435 98.369904,55.495964 95.165100,55.158661 
	C95.265495,55.580235 95.560928,56.820831 95.936859,58.377327 
	C96.007248,59.127171 95.997131,59.561108 95.685364,60.152962 
	C95.246918,61.201698 95.110123,62.092522 94.973328,62.983345 
z"/>
<path fill="#92774C" opacity="1.000000" stroke="none" 
	d="
M104.983452,55.916725 
	C104.382660,51.076778 105.762123,47.994320 112.674210,49.822060 
	C112.273735,49.274261 111.873268,48.726467 111.472801,48.178673 
	C110.007942,48.068089 108.543083,47.957500 107.078232,47.846916 
	C107.159203,47.111179 107.240181,46.375443 107.593765,45.373138 
	C107.866371,45.106571 108.026382,44.990047 108.255157,44.908333 
	C108.747734,44.620556 108.932343,44.358650 109.334846,44.091232 
	C114.310669,44.500641 110.540421,41.576073 111.110115,40.338203 
	C111.754967,41.079361 112.944405,41.809719 112.959351,42.563358 
	C113.090355,49.170887 113.034836,55.782879 112.946381,62.392365 
	C112.940125,62.859676 112.233803,63.317616 111.376724,63.538185 
	C110.303116,62.805836 109.705772,62.315208 109.090210,61.612713 
	C109.071991,61.400845 108.987473,60.984032 108.978050,60.718643 
	C108.690010,60.047340 108.411392,59.641430 107.818558,59.096466 
	C107.239822,58.590881 106.975311,58.224350 106.660248,57.647156 
	C106.449295,57.176922 106.223206,57.002342 105.748627,56.767941 
	C105.285240,56.458904 105.091125,56.223442 104.983452,55.916725 
z"/>
<path fill="#AA8B59" opacity="1.000000" stroke="none" 
	d="
M110.640472,40.242661 
	C110.540421,41.576073 114.310669,44.500641 109.293236,44.051254 
	C108.954514,43.960945 108.870789,43.882790 108.910339,43.552368 
	C108.616798,42.480076 108.283707,41.738201 107.691422,41.003304 
	C107.259369,41.010201 107.086517,41.010124 106.541832,41.011345 
	C105.428497,41.081432 104.686996,41.150230 103.546333,41.157909 
	C101.338234,41.369541 99.529282,41.642296 97.566635,42.109352 
	C97.593475,42.867962 97.774017,43.432266 97.946274,44.221111 
	C97.937996,44.445652 98.058212,44.878662 98.058212,44.878662 
	C96.895607,44.239277 95.733002,43.599892 94.127487,42.716927 
	C93.775253,42.991051 92.358192,44.093864 90.553848,45.195969 
	C89.907188,43.745155 89.647812,42.295052 89.263611,40.147114 
	C96.398949,40.147114 103.284889,40.147114 110.640472,40.242661 
z"/>
<path fill="#7F643E" opacity="1.000000" stroke="none" 
	d="
M89.132797,49.200279 
	C93.467117,49.718380 96.539207,50.931061 92.274925,55.780804 
	C91.617493,56.528492 92.655327,58.766792 92.890945,60.717270 
	C92.209419,62.181732 91.546104,63.244659 90.882790,64.307587 
	C90.250717,64.056961 89.618652,63.806335 88.986580,63.555710 
	C88.986580,59.663509 88.986580,55.771305 88.913414,51.419106 
	C88.909470,50.488384 88.978683,50.017666 89.132797,49.200279 
M91.522575,53.538635 
	C91.522575,53.538635 91.507790,53.569736 91.522575,53.538635 
z"/>
<path fill="#C29A60" opacity="1.000000" stroke="none" 
	d="
M108.987473,60.984032 
	C108.987473,60.984032 109.071991,61.400845 108.900925,61.761517 
	C108.796768,62.700241 108.863693,63.278290 108.930611,63.856339 
	C107.232948,63.925446 105.535294,63.994549 103.411499,64.075424 
	C102.985367,64.087204 103.029442,63.995079 103.018776,63.572243 
	C102.848328,61.694382 102.688553,60.239365 102.495949,58.485428 
	C103.732040,58.321999 104.833656,58.176350 106.130844,57.995060 
	C106.326416,57.959419 106.710800,57.857822 106.710800,57.857819 
	C106.975311,58.224350 107.239822,58.590881 107.813362,59.356750 
	C108.410751,60.165405 108.699112,60.574718 108.987473,60.984032 
z"/>
<path fill="#EAB773" opacity="1.000000" stroke="none" 
	d="
M109.100113,64.067513 
	C108.863693,63.278290 108.796768,62.700241 108.919144,61.973385 
	C109.705772,62.315208 110.303116,62.805836 110.970703,63.590343 
	C110.450508,64.015709 109.860062,64.147194 109.100113,64.067513 
z"/>
<path fill="#CCA367" opacity="1.000000" stroke="none" 
	d="
M105.935272,58.030701 
	C104.833656,58.176350 103.732040,58.321999 102.495949,58.485428 
	C102.688553,60.239365 102.848328,61.694382 103.026413,63.521751 
	C100.589935,63.718754 98.135139,63.543407 95.326843,63.175705 
	C95.110123,62.092522 95.246918,61.201698 96.014641,60.147457 
	C97.194138,59.607357 97.742699,59.230675 98.291260,58.853989 
	C97.479630,58.589802 96.668007,58.325611 95.856369,58.061424 
	C95.560928,56.820831 95.265495,55.580235 95.165100,55.158661 
	C98.369904,55.495964 101.243721,55.798435 104.550491,56.008812 
	C105.091125,56.223442 105.285240,56.458904 105.751785,57.047771 
	C105.936943,57.658520 105.936104,57.844608 105.935272,58.030701 
z"/>
<path fill="#CCA367" opacity="1.000000" stroke="none" 
	d="
M97.954559,43.996574 
	C97.774017,43.432266 97.593475,42.867962 97.876022,42.376694 
	C100.205246,42.585995 102.071373,42.722256 104.265549,42.895149 
	C104.811546,42.962170 105.029495,42.992558 105.226120,43.335243 
	C105.146835,44.060318 105.088860,44.473091 105.030884,44.885868 
	C104.845596,44.908920 104.660309,44.931969 103.912216,44.654091 
	C101.551117,44.234299 99.752838,44.115437 97.954559,43.996574 
z"/>
<path fill="#C29A60" opacity="1.000000" stroke="none" 
	d="
M95.936867,58.377327 
	C96.668007,58.325611 97.479630,58.589802 98.291260,58.853989 
	C97.742699,59.230675 97.194138,59.607357 96.316299,59.989544 
	C95.997131,59.561108 96.007248,59.127171 95.936867,58.377327 
z"/>
<path fill="#FBCD83" opacity="1.000000" stroke="none" 
	d="
M97.946274,44.221115 
	C99.752838,44.115437 101.551117,44.234299 103.638329,44.595543 
	C102.249832,44.875526 100.572411,44.913136 98.476593,44.914703 
	C98.058212,44.878662 97.937996,44.445652 97.946274,44.221115 
z"/>
<path fill="#7F643E" opacity="1.000000" stroke="none" 
	d="
M106.913651,41.010048 
	C107.086517,41.010124 107.259369,41.010201 107.695496,41.376320 
	C107.979729,42.486481 108.000702,43.230606 107.976822,44.228771 
	C107.963432,44.651894 107.994911,44.820969 108.026382,44.990047 
	C108.026382,44.990047 107.866371,45.106571 107.778595,45.152905 
	C107.690811,45.199238 107.276459,45.156601 107.039238,44.731468 
	C106.703232,43.895798 106.604446,43.485260 106.660362,42.753281 
	C106.847923,41.957912 106.880791,41.483978 106.913651,41.010048 
z"/>
<path fill="#FBCD83" opacity="1.000000" stroke="none" 
	d="
M106.505661,43.074722 
	C106.604446,43.485260 106.703232,43.895798 106.865364,44.616825 
	C106.502312,44.975307 106.075912,45.023300 105.340195,44.978580 
	C105.088860,44.473091 105.146835,44.060318 105.433304,43.349297 
	C105.661797,43.051048 106.083382,43.075306 106.083382,43.075306 
	C106.083382,43.075306 106.505661,43.074722 106.505661,43.074722 
z"/>
<path fill="#EAB773" opacity="1.000000" stroke="none" 
	d="
M108.978050,60.718643 
	C108.699112,60.574718 108.410751,60.165405 108.127586,59.495804 
	C108.411392,59.641430 108.690010,60.047340 108.978050,60.718643 
z"/>
<path fill="#EAB773" opacity="1.000000" stroke="none" 
	d="
M106.130844,57.995060 
	C105.936104,57.844608 105.936943,57.658520 105.934608,57.192596 
	C106.223206,57.002342 106.449295,57.176922 106.660248,57.647160 
	C106.710800,57.857822 106.326416,57.959419 106.130844,57.995060 
z"/>
<path fill="#AA8B59" opacity="1.000000" stroke="none" 
	d="
M108.255157,44.908333 
	C107.994911,44.820969 107.963432,44.651894 108.195572,44.265911 
	C108.459175,44.049007 108.870789,43.882790 108.870789,43.882790 
	C108.870789,43.882790 108.954514,43.960945 108.996124,44.000923 
	C108.932343,44.358650 108.747734,44.620556 108.255157,44.908333 
z"/>
<path fill="#F8C981" opacity="1.000000" stroke="none" 
	d="
M103.937500,42.858517 
	C102.071373,42.722256 100.205246,42.585995 98.029724,42.182396 
	C99.529282,41.642296 101.338234,41.369541 103.553085,41.430275 
	C103.951828,42.128677 103.944664,42.493595 103.937500,42.858517 
z"/>
<path fill="#E9BD78" opacity="1.000000" stroke="none" 
	d="
M104.265549,42.895149 
	C103.944664,42.493595 103.951828,42.128677 103.952240,41.491394 
	C104.686996,41.150230 105.428497,41.081432 106.541824,41.011345 
	C106.880791,41.483978 106.847923,41.957912 106.660362,42.753281 
	C106.505661,43.074722 106.083382,43.075306 106.083382,43.075306 
	C106.083382,43.075306 105.661797,43.051048 105.454620,43.036995 
	C105.029495,42.992558 104.811546,42.962170 104.265549,42.895149 
z"/>
<path fill="#E9BD78" opacity="1.000000" stroke="none" 
	d="
M108.910339,43.552368 
	C108.870789,43.882790 108.459175,44.049007 108.240433,44.011868 
	C108.000702,43.230606 107.979729,42.486481 107.954681,41.369347 
	C108.283707,41.738201 108.616798,42.480076 108.910339,43.552368 
z"/>
<path fill="#100D08" opacity="1.000000" stroke="none" 
	d="
M91.515182,53.554184 
	C91.507790,53.569736 91.522575,53.538635 91.515182,53.554184 
z"/>
</svg>